<?xml version="1.0" encoding="iso-8859-1"?>
<!-- Generator: Adobe Illustrator 19.0.0, SVG Export Plug-In . SVG Version: 6.00 Build 0)  -->
<svg version="1.1" id="Capa_1" xmlns="http://www.w3.org/2000/svg" xmlns:xlink="http://www.w3.org/1999/xlink" x="0px" y="0px"
	 viewBox="0 0 512.008 512.008" style="enable-background:new 0 0 512.008 512.008;" xml:space="preserve">
<g>
	<g>
		<path d="M384.001,53.333V10.667c0-4.354-2.646-8.281-6.688-9.896C376.022,0.25,374.668,0,373.335,0
			c-2.854,0-5.646,1.146-7.708,3.292L130.96,248.625c-3.937,4.125-3.937,10.625,0,14.75l234.667,245.333
			c3.021,3.146,7.646,4.167,11.688,2.521c4.042-1.615,6.688-5.542,6.688-9.896v-42.667c0-2.729-1.042-5.354-2.917-7.333L196.022,256
			L381.085,60.667C382.96,58.688,384.001,56.063,384.001,53.333z"/>
	</g>
</g>
<g>
</g>
<g>
</g>
<g>
</g>
<g>
</g>
<g>
</g>
<g>
</g>
<g>
</g>
<g>
</g>
<g>
</g>
<g>
</g>
<g>
</g>
<g>
</g>
<g>
</g>
<g>
</g>
<g>
</g>
</svg>
